<?xml version="1.0" encoding="UTF-8" standalone="no"?>
<!-- The icon can be used freely in both personal and commercial projects with no attribution required, but always appreciated. 
You may NOT sub-license, resell, rent, redistribute or otherwise transfer the icon without express written permission from iconmonstr.com -->

<svg
   xmlns:dc="http://purl.org/dc/elements/1.1/"
   xmlns:cc="http://creativecommons.org/ns#"
   xmlns:rdf="http://www.w3.org/1999/02/22-rdf-syntax-ns#"
   xmlns:svg="http://www.w3.org/2000/svg"
   xmlns="http://www.w3.org/2000/svg"
   xmlns:sodipodi="http://sodipodi.sourceforge.net/DTD/sodipodi-0.dtd"
   xmlns:inkscape="http://www.inkscape.org/namespaces/inkscape"
   version="1.1"
   x="0px"
   y="0px"
   width="512px"
   height="512px"
   viewBox="0 0 512 512"
   enable-background="new 0 0 512 512"
   xml:space="preserve"
   id="svg2"
   inkscape:version="0.48.4 r9939"
   sodipodi:docname="table_.svg"><metadata
   id="metadata9"><rdf:RDF><cc:Work
       rdf:about=""><dc:format>image/svg+xml</dc:format><dc:type
         rdf:resource="http://purl.org/dc/dcmitype/StillImage" /></cc:Work></rdf:RDF></metadata><defs
   id="defs7" /><sodipodi:namedview
   pagecolor="#ffffff"
   bordercolor="#666666"
   borderopacity="1"
   objecttolerance="10"
   gridtolerance="10"
   guidetolerance="10"
   inkscape:pageopacity="0"
   inkscape:pageshadow="2"
   inkscape:window-width="667"
   inkscape:window-height="690"
   id="namedview5"
   showgrid="false"
   inkscape:zoom="0.921875"
   inkscape:cx="230.54185"
   inkscape:cy="266.21657"
   inkscape:window-x="0"
   inkscape:window-y="40"
   inkscape:window-maximized="0"
   inkscape:current-layer="svg2" />



<path
   inkscape:connector-curvature="0"
   style="fill:#000000;fill-opacity:1;fill-rule:nonzero;stroke:none"
   d="m 86.643089,101.89941 0,65.66121 0.04232,0 0,259.93631 22.133951,0 323.2487,0 0,-0.0211 2.03141,0 0,-259.91514 0.0211,0 0,-65.66122 -347.477546,0 z m 22.176271,65.66121 64.68783,0 0,45.2836 -64.68783,0 0,-45.2836 z m 86.56784,0 74.23124,0 0,45.2836 -74.23124,0 0,-45.2836 z m 96.13242,0 120.4459,0 0,45.2836 -120.4459,0 0,-45.2836 z m -182.70026,66.97317 64.68783,0 0,41.26309 -64.68783,0 0,-41.26309 z m 86.56784,0 74.23124,0 0,41.26309 -74.23124,0 0,-41.26309 z m 96.13242,0 120.4459,0 0,41.26309 -120.4459,0 0,-41.26309 z m -182.70026,62.95267 64.68783,0 0,43.25218 -64.68783,0 0,-43.25218 z m 86.56784,0 74.23124,0 0,43.25218 -74.23124,0 0,-43.25218 z m 96.13242,0 120.4459,0 0,43.25218 -120.4459,0 0,-43.25218 z m -182.70026,64.94175 64.68783,0 0,43.37915 -64.68783,0 0,-43.37915 z m 86.56784,0 74.23124,0 0,43.37915 -74.23124,0 0,-43.37915 z m 96.13242,0 120.4459,0 0,43.37915 -120.4459,0 0,-43.37915 z"
   id="rect2998-1" /></svg>