<?xml version="1.0" encoding="UTF-8" standalone="no"?>
<!-- The icon can be used freely in both personal and commercial projects with no attribution required, but always appreciated. 
You may NOT sub-license, resell, rent, redistribute or otherwise transfer the icon without express written permission from iconmonstr.com -->

<svg
   xmlns:dc="http://purl.org/dc/elements/1.1/"
   xmlns:cc="http://creativecommons.org/ns#"
   xmlns:rdf="http://www.w3.org/1999/02/22-rdf-syntax-ns#"
   xmlns:svg="http://www.w3.org/2000/svg"
   xmlns="http://www.w3.org/2000/svg"
   xmlns:sodipodi="http://sodipodi.sourceforge.net/DTD/sodipodi-0.dtd"
   xmlns:inkscape="http://www.inkscape.org/namespaces/inkscape"
   version="1.1"
   x="0px"
   y="0px"
   width="512px"
   height="512px"
   viewBox="0 0 512 512"
   enable-background="new 0 0 512 512"
   xml:space="preserve"
   id="svg2"
   inkscape:version="0.48.4 r9939"
   sodipodi:docname="user1-icon.svg"><metadata
   id="metadata9"><rdf:RDF><cc:Work
       rdf:about=""><dc:format>image/svg+xml</dc:format><dc:type
         rdf:resource="http://purl.org/dc/dcmitype/StillImage" /><dc:title></dc:title></cc:Work></rdf:RDF></metadata><defs
   id="defs7" /><sodipodi:namedview
   pagecolor="#ffffff"
   bordercolor="#666666"
   borderopacity="1"
   objecttolerance="10"
   gridtolerance="10"
   guidetolerance="10"
   inkscape:pageopacity="0"
   inkscape:pageshadow="2"
   inkscape:window-width="999"
   inkscape:window-height="571"
   id="namedview5"
   showgrid="false"
   inkscape:zoom="0.4609375"
   inkscape:cx="256"
   inkscape:cy="169.22034"
   inkscape:window-x="103"
   inkscape:window-y="40"
   inkscape:window-maximized="0"
   inkscape:current-layer="svg2" />
<path
   id="user-8-icon"
   d="M 319.32568,114.81909 C 297.83196,109.853 277.82476,105.50434 287.51434,87.205242 317.00832,31.505249 295.33219,1.7178 264.18712,1.7178 c -31.7589,0 -52.90165,30.930779 -23.32722,85.487442 9.98012,18.410688 -10.77963,22.754618 -31.81134,27.613848 -21.48498,4.96319 -19.83243,16.3104 -19.83243,36.89871 h 65.52062 l 4.40025,-22.63098 h 10.09953 l 4.40025,22.63098 h 65.5206 c 0,-20.58867 1.65257,-31.93552 -19.8317,-36.89871 z m -51.44461,8.58866 h -7.27575 l -5.68727,-11.93403 h 18.71036 l -5.74734,11.93403 z"
   inkscape:connector-curvature="0" />
<path
   inkscape:connector-curvature="0"
   id="user-14-icon"
   d="m 463.59512,510.03547 h -79.937 c -0.004,-86.998 -43.49,-45.648 -43.49,-121.885 0,-27.52 18.017,-42.455 41.15,-42.455 34.181,0 57.969,32.635 25.601,93.66 -10.634,20.049 11.323,24.812 34.912,30.254 23.578,5.438 21.764,17.87 21.764,40.426 z m -390.172003,-40.425 c 23.589003,-5.441 45.546003,-10.205 34.912003,-30.254 -32.368003,-61.025 -8.58,-93.66 25.601,-93.66 23.134,0 41.15,14.936 41.15,42.455 0,76.236 -43.486,34.887 -43.49,121.885 H 51.659118 c 0,-22.557 -1.814,-34.989 21.763999,-40.426 z m 260.319003,-10.424 c -29.67,-6.846 -57.289,-12.838 -43.913,-38.055 40.715,-76.762 10.792,-117.812 -32.202,-117.812 -43.842,0 -73.027,42.625 -32.201,117.812 13.776,25.371 -14.883,31.357 -43.915,38.055 -29.658,6.84 -27.377,22.477 -27.377,50.85 h 206.985 c 0,-28.374 2.282,-44.01 -27.377,-50.85 z" /><polygon
   id="arrow-15-icon"
   points="322.019,116.259 462,256.001 322.019,395.741 322.019,336.206 50,256.001 322.019,175.794 "
   transform="matrix(0,0.24271845,-0.3578048,0,355.4841,155.15221)" /></svg>